<?xml version="1.0" encoding="UTF-8" standalone="no"?>
<!-- Created with Inkscape (http://www.inkscape.org/) -->

<svg
   width="210mm"
   height="297mm"
   viewBox="0 0 210 297"
   version="1.1"
   id="svg5"
   inkscape:version="1.1.2 (b8e25be833, 2022-02-05)"
   sodipodi:docname="totalImages.svg"
   xmlns:inkscape="http://www.inkscape.org/namespaces/inkscape"
   xmlns:sodipodi="http://sodipodi.sourceforge.net/DTD/sodipodi-0.dtd"
   xmlns="http://www.w3.org/2000/svg"
   xmlns:svg="http://www.w3.org/2000/svg">
  <sodipodi:namedview
     id="namedview7"
     pagecolor="#ffffff"
     bordercolor="#666666"
     borderopacity="1.0"
     inkscape:pageshadow="2"
     inkscape:pageopacity="0.0"
     inkscape:pagecheckerboard="0"
     inkscape:document-units="mm"
     showgrid="false"
     inkscape:zoom="1.0164241"
     inkscape:cx="231.69462"
     inkscape:cy="451.58314"
     inkscape:window-width="1920"
     inkscape:window-height="991"
     inkscape:window-x="-9"
     inkscape:window-y="-9"
     inkscape:window-maximized="1"
     inkscape:current-layer="layer1" />
  <defs
     id="defs2">
    <inkscape:path-effect
       effect="spiro"
       id="path-effect3022"
       is_visible="true"
       lpeversion="1" />
    <inkscape:path-effect
       effect="spiro"
       id="path-effect1245"
       is_visible="true"
       lpeversion="1" />
    <inkscape:path-effect
       effect="spiro"
       id="path-effect1241"
       is_visible="true"
       lpeversion="1" />
    <inkscape:path-effect
       effect="spiro"
       id="path-effect1237"
       is_visible="true"
       lpeversion="1" />
    <inkscape:path-effect
       effect="spiro"
       id="path-effect1233"
       is_visible="true"
       lpeversion="1" />
    <inkscape:path-effect
       effect="spiro"
       id="path-effect1229"
       is_visible="true"
       lpeversion="1" />
    <clipPath
       clipPathUnits="userSpaceOnUse"
       id="clipPath6438">
      <path
         id="path6440"
         style="fill:#ff0000;fill-opacity:1;fill-rule:nonzero;stroke:none;stroke-width:0.782722"
         d="M -6.5183515e-4,0.00135911 V 190.22194 C 6.4954716,204.99719 7.8029762,225.36447 0.25952804,250.41199 c -0.0809593,0.26883 -0.17749196,0.53299 -0.26017987515,0.80131 v 84.61709 C 1.8576694,348.69726 3.8512188,361.97608 6.4822612,376.85247 c 0.2862677,1.6186 1.4721192,2.9546 2.2084682,4.43209 10.5794376,20.89333 11.3582016,21.14592 -8.69138123515,28.09402 v 69.32285 H 478.70352 V 0.00135911 Z" />
    </clipPath>
  </defs>
  <g
     inkscape:label="Layer 1"
     inkscape:groupmode="layer"
     id="layer1">
    <path
       style="fill:none;fill-opacity:1;stroke:#004a4d;stroke-width:1.46184;stroke-linecap:butt;stroke-linejoin:miter;stroke-miterlimit:4;stroke-dasharray:none;stroke-dashoffset:0;stroke-opacity:1"
       d="m 55.363249,51.644086 c -8.178428,0.05916 -16.282139,3.484714 -22.023327,9.309569 -5.741188,5.824855 -9.049146,13.977275 -8.989985,22.155703 0.05916,8.178428 3.484714,16.282139 9.309569,22.023332 5.824855,5.74118 13.977275,9.04914 22.155703,8.98998 8.178428,-0.0592 16.282139,-3.48471 22.023327,-9.30957 5.741188,-5.824854 9.049146,-13.977274 8.989985,-22.155702 C 86.76936,74.47897 83.343807,66.375259 77.518952,60.634071 71.694097,54.892883 63.541677,51.584925 55.363249,51.644086"
       id="path1227"
       inkscape:original-d="m 55.363249,51.644086 c -9.8e-5,-1.04e-4 0.301407,41.652491 0.45196,62.478584 0.150557,20.82609 -0.301208,-41.652286 -0.45196,-62.478584"
       inkscape:path-effect="#path-effect1229" />
    <path
       style="fill:none;fill-opacity:1;stroke:#004a4d;stroke-width:1.46184;stroke-linecap:butt;stroke-linejoin:miter;stroke-miterlimit:4;stroke-dasharray:none;stroke-dashoffset:0;stroke-opacity:1"
       d="m 55.006436,55.317986 c -3.477202,1.32348 -6.704405,3.300472 -9.462972,5.797038 -3.825605,3.46226 -6.734655,7.928311 -8.355088,12.826953 -1.620433,4.898643 -1.948475,10.21847 -0.942172,15.279088 1.006303,5.060618 3.344609,9.850242 6.715854,13.756295 3.371244,3.90604 7.767577,6.91942 12.626716,8.65472"
       id="path1231"
       inkscape:original-d="m 55.006436,55.317986 c -3.154195,1.932451 -6.30852,3.864796 -9.462972,5.797038 -3.154452,1.932243 6.697001,33.678139 10.04531,50.517056"
       inkscape:path-effect="#path-effect1233" />
    <path
       style="fill:none;fill-opacity:1;stroke:#004a4d;stroke-width:1.46184;stroke-linecap:butt;stroke-linejoin:miter;stroke-miterlimit:4;stroke-dasharray:none;stroke-dashoffset:0;stroke-opacity:1"
       d="m 55.136889,55.313821 c 1.889229,0.564196 3.721593,1.31862 5.4604,2.248164 5.07459,2.712811 9.322842,6.947803 12.051502,12.013888 2.728661,5.066085 3.927192,10.943698 3.400011,16.673697 -0.527181,5.729998 -2.778039,11.290255 -6.385265,15.77341 -3.607226,4.48316 -8.556891,7.87191 -14.04128,9.61326"
       id="path1235"
       inkscape:original-d="m 55.136889,55.313821 c 1.820239,0.749492 3.640374,1.49888 5.4604,2.248164 1.820025,0.749284 -3.316581,36.049607 -4.975032,54.074255"
       inkscape:path-effect="#path-effect1237" />
    <path
       style="fill:none;fill-opacity:1;stroke:#004a4d;stroke-width:1.46184;stroke-linecap:butt;stroke-linejoin:miter;stroke-miterlimit:4;stroke-dasharray:none;stroke-dashoffset:0;stroke-opacity:1"
       d="m 33.330116,62.175514 c 2.682014,2.809499 5.929584,5.076872 9.491196,6.626517 5.718837,2.488246 12.243566,3.081568 18.317422,1.665681 6.073856,-1.415886 11.66365,-4.833243 15.692698,-9.593835"
       id="path1239"
       inkscape:original-d="m 33.330116,62.175514 c 3.163832,2.208943 6.327564,4.417781 9.491196,6.626517 3.163632,2.208734 22.673511,-5.285331 34.01012,-7.928154"
       inkscape:path-effect="#path-effect1241" />
    <path
       style="fill:none;fill-opacity:1;stroke:#004a4d;stroke-width:1.46184;stroke-linecap:butt;stroke-linejoin:miter;stroke-miterlimit:4;stroke-dasharray:none;stroke-dashoffset:0;stroke-opacity:1"
       d="m 34.008058,104.77455 c 2.186952,-3.05782 5.015296,-5.654656 8.248302,-7.573164 5.689696,-3.376341 12.636057,-4.57541 19.1284,-3.301912 6.492343,1.273498 12.470993,5.007858 16.463586,10.283416 M 25.646767,83.001709 85.079737,82.055066"
       id="path1243"
       inkscape:original-d="m 34.008058,104.77455 c 2.749533,-2.52429 5.498967,-5.048672 8.248302,-7.573164 2.749333,-2.524492 23.72809,4.654444 35.591986,6.981504 M 25.646767,83.001709 85.079737,82.055066"
       inkscape:path-effect="#path-effect1245" />
    <path
       style="fill:none;fill-opacity:1;stroke:#004a4d;stroke-width:1.46184;stroke-linecap:butt;stroke-linejoin:miter;stroke-miterlimit:4;stroke-dasharray:none;stroke-dashoffset:0;stroke-opacity:1"
       d="M 55.363249,51.644086 V 114.35934"
       id="path1360" />
    <path
       style="fill:#7ec8e3;fill-opacity:1;fill-rule:evenodd;stroke:#0000ff;stroke-width:0;stroke-miterlimit:4;stroke-dasharray:none"
       d="m 212.38206,290.5392 c 0,-17.40675 0.0467,-18.55245 0.75576,-18.55245 1.98266,0 11.97622,-1.35827 15.81305,-2.14923 11.48311,-2.36722 24.86887,-7.51349 34.26982,-13.17532 1.3328,-0.80269 2.59546,-1.45944 2.80591,-1.45944 0.78024,0 6.39234,9.77303 9.26288,16.13055 4.6435,10.28423 7.90779,22.48852 9.11061,34.06206 l 0.22943,2.20761 -9.54907,0.26355 c -5.252,0.14495 -17.77969,0.36369 -27.83933,0.48608 -10.05964,0.12239 -22.01823,0.33874 -26.57465,0.48078 l -8.28441,0.25825 z"
       id="path1147"
       transform="scale(0.26458333)" />
    <path
       style="fill:#7ec8e3;fill-opacity:1;fill-rule:evenodd;stroke:#0000ff;stroke-width:0;stroke-miterlimit:4;stroke-dasharray:none"
       d="m 212.38206,239.78473 v -26.2882 l 2.90492,1.06649 c 8.47277,3.11062 21.19828,10.42994 28.794,16.56143 6.22103,5.02179 18.22657,17.38351 18.2213,18.76189 -0.002,0.39051 -5.38697,3.53617 -9.68167,5.65507 -10.46683,5.16408 -24.76694,9.11105 -37.11845,10.24507 l -3.1201,0.28646 z"
       id="path1186"
       transform="scale(0.26458333)" />
    <path
       style="fill:#7ec8e3;fill-opacity:1;fill-rule:evenodd;stroke:#0000ff;stroke-width:0;stroke-miterlimit:4;stroke-dasharray:none"
       d="m 198.82576,265.93307 c -10.8832,-0.70138 -22.63749,-3.38237 -32.93669,-7.51238 -3.86698,-1.55067 -8.87109,-3.85261 -9.3931,-4.32091 -0.31497,-0.28256 4.71248,-7.00962 8.74108,-11.69613 9.28735,-10.80409 22.13107,-20.54959 35.41216,-26.86988 2.89647,-1.3784 5.36565,-2.50617 5.48707,-2.50617 0.12142,0 0.22076,12.00701 0.22076,26.68224 v 26.68225 l -1.18349,-0.0631 c -0.65092,-0.0347 -3.50742,-0.21287 -6.34779,-0.39592 z"
       id="path1225"
       transform="scale(0.26458333)" />
    <path
       style="fill:#7ec8e3;fill-opacity:1;fill-rule:evenodd;stroke:#0000ff;stroke-width:0;stroke-miterlimit:4;stroke-dasharray:none"
       d="m 138.12708,306.75923 c 1.23546,-15.19472 5.79287,-30.79095 12.76809,-43.69459 l 2.14765,-3.97298 3.47984,1.74963 c 12.99545,6.53398 31.96645,11.14546 45.85092,11.14546 h 3.98346 v 18.44169 18.44168 l -10.65138,0.27525 c -5.85826,0.15139 -20.33446,0.37961 -32.16932,0.50716 -11.83487,0.12755 -22.45883,0.33232 -23.6088,0.45504 l -2.09085,0.22314 z"
       id="path1264"
       transform="scale(0.26458333)" />
    <path
       style="fill:#7ec8e3;fill-opacity:1;fill-rule:evenodd;stroke:#0000ff;stroke-width:0;stroke-miterlimit:4;stroke-dasharray:none"
       d="m 146.27029,248.06144 c -5.40739,-3.60891 -11.12518,-8.26802 -15.15302,-12.34736 l -3.15467,-3.195 3.83552,-3.51736 c 19.19161,-17.59969 45.22969,-28.95439 69.822,-30.44802 l 4.73692,-0.2877 v 4.10312 4.10313 l -2.47457,0.97847 c -4.76746,1.88509 -14.14105,6.8533 -19.25855,10.20745 -12.30955,8.06801 -23.29281,18.60624 -31.20941,29.94482 -1.26577,1.8129 -2.43435,3.29618 -2.59686,3.29618 -0.1625,0 -2.20881,-1.27698 -4.54736,-2.83773 z"
       id="path1303"
       transform="scale(0.26458333)" />
    <path
       style="fill:#7ec8e3;fill-opacity:1;fill-rule:evenodd;stroke:#0000ff;stroke-width:0;stroke-miterlimit:4;stroke-dasharray:none"
       d="m 124.80405,390.45426 c -15.74677,-17.78452 -25.658926,-39.38954 -28.891724,-62.97377 -0.994435,-7.2547 -0.994648,-21.09321 -4.37e-4,-28.38114 2.911727,-21.34402 11.355781,-41.25988 24.506661,-57.8006 l 3.36096,-4.2273 4.26138,4.09018 c 4.89354,4.69693 10.27712,8.95794 15.82165,12.52256 l 3.86304,2.48357 -2.72205,5.21975 c -7.3794,14.15063 -11.30634,28.08244 -12.90423,45.78107 l -0.28169,3.1201 -5.65857,8.6e-4 c -3.11222,4.3e-4 -11.03269,0.12844 -17.60104,0.28439 l -11.942453,0.28353 v 2.91223 2.91223 l 17.575553,-0.25078 17.57556,-0.25079 0.29277,5.33858 c 0.88312,16.10369 4.94188,31.2772 12.28436,45.92451 l 2.54845,5.08385 -2.64522,2.12592 c -3.59767,2.89136 -10.7095,10.08781 -13.8223,13.98676 -1.40588,1.76093 -2.76151,3.43634 -3.01251,3.72312 -0.3434,0.39236 -0.989,-0.0801 -2.60816,-1.90883 z"
       id="path1342"
       transform="scale(0.26458333)" />
    <path
       style="fill:#7ec8e3;fill-opacity:1;fill-rule:evenodd;stroke:#0000ff;stroke-width:0;stroke-miterlimit:4;stroke-dasharray:none"
       d="m 149.81319,365.04049 c -6.02411,-11.99473 -9.69932,-24.24224 -11.2484,-37.48495 -0.34914,-2.9847 -0.6348,-6.80168 -0.6348,-8.48218 v -3.05547 l 19.04338,-0.28514 c 10.47385,-0.15683 25.86994,-0.41098 34.21352,-0.56477 l 15.17015,-0.27962 v 17.65248 17.65249 l -3.33528,0.2857 c -17.54544,1.50297 -35.2676,7.73908 -50.11485,17.63453 l -1.16153,0.77414 z"
       id="path1381"
       transform="scale(0.26458333)" />
    <path
       style="fill:#7ec8e3;fill-opacity:1;fill-rule:evenodd;stroke:#0000ff;stroke-width:0;stroke-miterlimit:4;stroke-dasharray:none"
       d="m 267.2528,365.53867 c -14.73435,-9.01445 -30.95342,-14.10831 -48.53589,-15.24346 -3.36582,-0.21731 -6.16809,-0.39925 -6.22726,-0.40431 -0.0592,-0.005 -0.10759,-7.83708 -0.10759,-17.40449 v -17.39527 l 2.68974,-0.23394 c 1.47936,-0.12867 11.79183,-0.33842 22.91661,-0.46611 11.12477,-0.1277 26.20922,-0.35868 33.52099,-0.5133 l 13.29412,-0.28113 -0.24328,7.49113 c -0.3884,11.9595 -2.8082,23.17735 -7.60361,35.24928 -1.43367,3.60911 -5.28669,11.62282 -5.57514,11.59546 -0.1405,-0.0133 -1.99841,-1.09056 -4.12869,-2.39386 z"
       id="path1420"
       transform="scale(0.26458333)" />
    <path
       style="fill:#7ec8e3;fill-opacity:1;fill-rule:evenodd;stroke:#0000ff;stroke-width:0;stroke-miterlimit:4;stroke-dasharray:none"
       d="m 294.38095,389.1506 c -2.97046,-4.0691 -8.86264,-9.89091 -16.71638,-16.51673 l -1.20791,-1.01906 3.01157,-6.2402 c 6.94001,-14.38023 11.23913,-32.25679 11.23913,-46.73444 v -4.77973 l 3.93934,-0.27962 c 2.16664,-0.1538 9.13845,-0.27963 15.49292,-0.27963 h 11.55357 v -3.08229 -3.08228 l -15.44768,0.28283 c -17.07102,0.31257 -15.96562,0.4813 -15.97105,-2.43786 -10e-4,-0.74991 -0.28896,-3.26372 -0.63903,-5.58625 -2.28342,-15.14906 -7.3273,-29.41131 -14.89187,-42.1088 l -3.41954,-5.73988 1.19208,-0.86169 c 4.17455,-3.01756 9.25042,-7.43369 14.14422,-12.3058 l 5.63604,-5.61106 2.9172,3.14809 c 3.48769,3.76375 9.18641,11.29605 12.14968,16.05887 8.64165,13.88962 14.13692,28.906 16.77272,45.83321 1.07883,6.92827 1.08378,24.03934 0.009,30.77065 -3.02596,18.94965 -8.8559,34.03791 -19.03973,49.27608 -3.25941,4.87709 -9.12967,12.43941 -9.66384,12.44935 -0.11834,0.002 -0.5955,-0.51698 -1.06035,-1.15376 z"
       id="path1459"
       transform="scale(0.26458333)" />
    <path
       style="fill:#7ec8e3;fill-opacity:1;fill-rule:evenodd;stroke:#0000ff;stroke-width:0;stroke-miterlimit:4;stroke-dasharray:none"
       d="m 293.99596,388.27152 c -1.24368,-1.79464 -10.06848,-10.56233 -14.46224,-14.36865 l -2.78163,-2.40974 2.43766,-5.10347 c 7.44032,-15.57699 11.51761,-32.0838 11.51761,-46.62875 v -5.54626 l 1.82902,-0.22969 c 1.00597,-0.12634 7.97778,-0.35417 15.49292,-0.5063 l 13.66389,-0.27661 v -3.12635 -3.12635 l -15.04976,0.22673 c -11.80003,0.17777 -15.19191,0.10875 -15.70809,-0.31965 -0.43966,-0.36488 -0.65834,-1.30559 -0.65834,-2.83199 0,-2.94188 -1.8266,-12.88566 -3.44163,-18.73585 -2.68365,-9.72104 -6.56086,-18.88801 -11.80199,-27.90363 l -3.35981,-5.77944 1.23118,-0.89112 c 3.06465,-2.2182 9.11565,-7.50233 14.02275,-12.2456 l 5.35406,-5.17531 2.17883,2.23987 c 6.22059,6.39488 13.54377,17.20342 18.42946,27.20068 5.22447,10.69049 8.71094,21.50911 10.81781,33.56798 1.11289,6.36975 1.09434,27.88217 -0.0293,33.99835 -3.41532,18.58996 -8.89837,32.452 -18.55463,46.9091 -4.07127,6.0954 -9.10438,12.69559 -9.68129,12.69559 -0.17293,0 -0.82384,-0.73509 -1.44646,-1.63354 z"
       id="path1498"
       transform="scale(0.26458333)" />
    <path
       style="fill:#7ec8e3;fill-opacity:1;fill-rule:evenodd;stroke:#0000ff;stroke-width:0;stroke-miterlimit:4;stroke-dasharray:none"
       d="m 264.47416,242.7162 c -6.55333,-7.98735 -16.45461,-16.79385 -25.62504,-22.79168 -5.64029,-3.68899 -17.49644,-9.64953 -22.7252,-11.42483 l -3.74186,-1.27046 v -4.41692 -4.41691 h 3.20565 c 4.05187,0 11.79198,1.00767 18.3084,2.38353 18.60036,3.92723 37.69318,13.45124 52.05782,25.96782 l 1.91713,1.67049 -2.89895,3.13112 c -4.69895,5.07531 -12.38346,11.85814 -16.23274,14.32804 l -1.09559,0.70299 z"
       id="path1537"
       transform="scale(0.26458333)" />
    <path
       style="fill:#7ec8e3;fill-opacity:1;fill-rule:evenodd;stroke:#0000ff;stroke-width:0;stroke-miterlimit:4;stroke-dasharray:none"
       d="m 212.38206,386.86618 v -31.0702 l 4.84154,0.29642 c 10.01513,0.61318 20.70211,2.81259 29.37198,6.04484 5.34201,1.99157 14.14652,6.34452 18.47589,9.13448 l 3.26638,2.10493 -2.53921,3.72111 c -5.44727,7.98278 -13.75633,16.96976 -21.13967,22.86443 -9.20392,7.34818 -23.09105,15.19059 -31.3086,17.68077 l -0.96831,0.29342 z"
       id="path1576"
       transform="scale(0.26458333)" />
    <path
       style="fill:#7ec8e3;fill-opacity:1;fill-rule:evenodd;stroke:#0000ff;stroke-width:0;stroke-miterlimit:4;stroke-dasharray:none"
       d="m 202.05345,415.3254 c -14.21773,-6.49979 -28.0283,-16.9969 -37.97403,-28.86321 -3.52309,-4.20342 -8.93563,-11.67112 -8.93437,-12.32678 7.7e-4,-0.40017 5.41035,-3.84602 9.89754,-6.30465 6.78539,-3.71784 16.49013,-7.32588 24.69413,-9.1808 5.15611,-1.1658 12.49285,-2.29272 15.00647,-2.305 l 1.61385,-0.008 v 30.3403 c 0,16.68716 -0.14525,30.33581 -0.32277,30.33032 -0.17753,-0.005 -1.96889,-0.76251 -3.98082,-1.68229 z"
       id="path1654"
       transform="scale(0.26458333)" />
    <path
       style="fill:#7ec8e3;fill-opacity:1;fill-rule:evenodd;stroke:#0000ff;stroke-width:0;stroke-miterlimit:4;stroke-dasharray:none"
       d="m 198.18022,427.72345 c -24.0746,-2.77375 -47.69332,-13.28775 -64.95503,-28.9151 l -1.81207,-1.64051 1.1867,-1.58719 c 3.07107,-4.10749 8.54012,-10.04828 12.61389,-13.70193 2.46751,-2.21304 4.59779,-4.01757 4.73395,-4.01008 0.13615,0.007 1.11903,1.31207 2.18417,2.89905 5.47615,8.15908 15.06828,18.58 22.80902,24.77981 7.8549,6.29125 18.56928,12.77032 26.85543,16.23969 l 4.54036,1.90103 0.0102,2.25939 0.0102,2.25938 -2.47457,-0.0558 c -1.36101,-0.0307 -3.92702,-0.22317 -5.70225,-0.4277 z"
       id="path1693"
       transform="scale(0.26458333)" />
    <path
       style="fill:#7ec8e3;fill-opacity:1;fill-rule:evenodd;stroke:#0000ff;stroke-width:0;stroke-miterlimit:4;stroke-dasharray:none"
       d="m 212.38206,426.40169 v -1.93647 l 4.84154,-1.83846 c 21.06463,-7.99879 39.64434,-22.48024 53.03173,-41.33415 1.5946,-2.24573 3.11739,-4.01967 3.38399,-3.9421 1.52422,0.44349 10.32121,8.76347 14.37688,13.5973 l 3.24321,3.86549 -2.62135,2.4639 c -18.8935,17.75857 -45.6309,29.28246 -71.41446,30.7798 l -4.84154,0.28117 z"
       id="path1732"
       transform="scale(0.26458333)" />
  </g>
</svg>
