<?xml version="1.0" encoding="UTF-8" standalone="no"?>
<!-- Created with Inkscape (http://www.inkscape.org/) -->

<svg
   width="210mm"
   height="297mm"
   viewBox="0 0 210 297"
   version="1.1"
   id="svg5"
   sodipodi:docname="tree1.svg"
   inkscape:version="1.1.2 (b8e25be833, 2022-02-05)"
   xmlns:inkscape="http://www.inkscape.org/namespaces/inkscape"
   xmlns:sodipodi="http://sodipodi.sourceforge.net/DTD/sodipodi-0.dtd"
   xmlns="http://www.w3.org/2000/svg"
   xmlns:svg="http://www.w3.org/2000/svg">
  <sodipodi:namedview
     id="namedview7"
     pagecolor="#ffffff"
     bordercolor="#666666"
     borderopacity="1.0"
     inkscape:pageshadow="2"
     inkscape:pageopacity="0.0"
     inkscape:pagecheckerboard="0"
     inkscape:document-units="mm"
     showgrid="false"
     inkscape:zoom="0.2547738"
     inkscape:cx="380.72988"
     inkscape:cy="1477.7815"
     inkscape:window-width="1920"
     inkscape:window-height="991"
     inkscape:window-x="-9"
     inkscape:window-y="-9"
     inkscape:window-maximized="1"
     inkscape:current-layer="layer1" />
  <defs
     id="defs2" />
  <g
     inkscape:label="Layer 1"
     inkscape:groupmode="layer"
     id="layer1">
    <g
       id="tree1"
       transform="matrix(3.3610449,0,0,2.7010856,-229.03238,-321.69094)"
       style="stroke-width:0.16594481;stroke-miterlimit:4;stroke-dasharray:none;stroke:#000000;stroke-opacity:1">
      <path
         style="fill:none;stroke:#000000;stroke-width:0.16594481;stroke-linecap:butt;stroke-linejoin:miter;stroke-opacity:1;stroke-miterlimit:4;stroke-dasharray:none"
         d="m 100.74426,216.24328 v 0 l 0.18484,10.13265 -11.644825,-0.19118 v -9.94147 c -0.83492,0.18538 -1.15956,0.43461 -1.66355,0.95591 -0.19484,0.20153 -0.15452,0.58669 -0.36968,0.76473 -0.55655,0.46052 -1.41245,0.82605 -2.03323,1.14709 -1.3351,0.69046 -5.23075,-1.96899 -6.09967,-2.86773 -0.46558,-0.48155 -0.76641,-1.25907 -0.92418,-1.91182 -0.18922,-0.78283 0.32066,-3.2501 1.10902,-3.2501 0.42924,0 -0.52897,0.82069 -0.73935,1.1471 -0.0231,0.0358 -0.33698,0.55664 -0.36967,0.57354 -0.42066,0.21754 -2.55168,0.27978 -2.95742,0 -0.0513,-0.0353 0.0551,-0.16268 0,-0.19118 -0.11022,-0.057 -0.24645,0 -0.36968,0 -0.12323,-0.0637 -0.25154,-0.11787 -0.36968,-0.19118 -1.53742,-0.95411 -4.24102,-2.83591 -4.8058,-4.58837 -0.21394,-0.66384 -0.18484,-1.59478 -0.18484,-2.29419 0,-0.44609 -0.13639,-0.91507 0,-1.33827 0.11021,-0.342 0.52162,-0.48323 0.73936,-0.76473 0.17212,-0.22255 0.17483,-0.56321 0.36967,-0.76473 0.96812,-1.00135 2.28741,-1.68082 3.51193,-2.103 0.1397,-0.0482 2.03323,0.0313 2.03323,0 0,-0.0814 -0.57271,0.4626 -1.10903,0.57354 -0.56983,0.11788 -1.66891,0.0947 -2.21807,0 -2.1227,-0.36592 -4.28325,-2.61042 -3.14225,-4.97073 0.19669,-0.40688 0.33735,-0.96391 0.55452,-1.33828 0.17566,-0.30281 2.33299,-2.29716 2.58773,-2.48537 0.15855,-0.11713 0.39865,-0.0703 0.55453,-0.19118 0.11021,-0.0855 0.12322,-0.25491 0.18483,-0.38237 0.18484,-0.12745 0.36164,-0.26836 0.55451,-0.38236 0.62142,-0.36727 1.03105,-0.40999 1.66356,-0.57355 0.2673,-0.0691 0.47441,-0.30406 0.73935,-0.38236 1.5886,-0.46946 0.27839,-0.0121 1.66355,-0.19118 1.77246,-0.22917 3.13523,-0.3878 4.62095,0.76473 0.63244,0.49061 0.9242,0.32152 0.9242,1.14709"
         id="path68352-7-4" />
      <path
         style="fill:none;stroke:#000000;stroke-width:0.16594481;stroke-linecap:butt;stroke-linejoin:miter;stroke-opacity:1;stroke-miterlimit:4;stroke-dasharray:none"
         d="m 100.74426,216.24328 c 1.29608,0.91942 2.8228,1.03695 4.25129,1.52945 1.10992,0.38268 2.27835,0.78621 3.51194,0.57355 1.62254,-0.2797 -0.28255,-0.0703 0.92419,-0.38236 0.45574,-0.11785 0.82219,-0.27024 1.10903,-0.76473 0.40812,-0.70354 0.18484,-1.88832 0.18484,-2.67655 0,-0.0823 0.0423,-1.57326 -0.18484,-1.33827 -0.0484,0.0501 -0.041,1.30999 0,1.33827 0.26584,0.18331 1.49035,0.38237 1.84839,0.38237 0.83203,0 -0.17932,-0.0309 1.10903,0.19118 2.86807,0.49441 4.74557,-0.51124 6.65419,-2.48537 1.43667,-1.48597 3.00663,-5.6495 0.9242,-7.26492 -0.39008,-0.3026 -4.06645,-1.62499 -4.06645,-1.14709 0,0.1119 4.02274,-0.11345 4.43612,-0.19119 4.25367,-0.79993 6.71555,-2.3608 6.28452,-7.26492 -0.36603,-4.1645 -5.74446,-6.66201 -9.24194,-7.26492 -0.75313,-0.12983 -1.63199,0 -2.4029,0 -0.0616,0 0.12323,0 0.18484,0 0.24645,0 0.4929,0 0.73936,0 0.83376,0 1.40502,-0.022 2.21806,-0.38236 0.37224,-0.16501 0.99874,-0.26829 1.29387,-0.57355 0.62993,-0.65155 0.89802,-3.46835 0.18484,-4.20601 -1.12216,-1.16068 -2.31869,-1.70975 -3.88161,-1.91182 -0.94162,-0.12174 -1.39476,-0.38236 -2.40291,-0.38236 -0.29768,0 -5.00093,-0.20183 -4.43612,0.38236 0.0105,0.0109 0.60991,-0.31542 0.73935,-0.38236"
         id="path68387-5-1" />
      <path
         style="fill:none;stroke:#000000;stroke-width:0.16594481;stroke-linecap:butt;stroke-linejoin:miter;stroke-opacity:1;stroke-miterlimit:4;stroke-dasharray:none"
         d="m 78.748465,190.05133 c -0.7983,-0.69234 -1.38866,-1.5344 -1.84837,-2.48537 -0.81182,-1.67936 -1.08858,-2.97353 -0.73936,-4.77955 0.10399,-0.53779 0.12381,-1.21202 0.36968,-1.72064 0.18536,-0.38345 1.00536,-1.08249 1.29387,-1.33828 0.33559,-0.29751 3.14225,-2.52565 3.14225,-1.14709"
         id="path68391-1-3" />
      <path
         style="fill:none;stroke:#000000;stroke-width:0.16594481;stroke-linecap:butt;stroke-linejoin:miter;stroke-opacity:1;stroke-miterlimit:4;stroke-dasharray:none"
         d="m 85.772335,182.78641 c -1.67911,-0.28946 -0.62592,0.0838 -2.03322,-0.95592 -1.09658,-0.81014 -2.84019,-2.03419 -3.51194,-3.25009 -1.38181,-2.50116 -2.28023,-5.70331 0.73936,-7.26492 0.59458,-0.30749 0.94029,-0.76473 1.66354,-0.76473 1.68167,0 -1.79972,0.0721 -2.21806,0 -0.47696,0.1977 -0.72692,-0.30332 -1.10903,-0.38236 -0.18125,-0.0375 -0.37916,0.0605 -0.55452,0 -0.27289,-0.0941 -2.29392,-1.03439 -2.40289,-1.1471 -0.13777,-0.14249 -0.0631,-0.41617 -0.18484,-0.57354 -0.60445,-0.7815 -0.472,0.0148 -0.92419,-0.76473 -0.40958,-0.70607 -0.83054,-2.01126 -0.55452,-2.86773 0.31616,-0.98103 1.52979,-2.79856 2.4029,-3.2501 0.11022,-0.057 0.26401,0.0656 0.36968,0 0.29887,-0.18547 0.42761,-0.60351 0.73936,-0.76473 1.34459,-0.69537 2.69725,-1.33827 4.25128,-1.33827 0.0616,0 -0.12323,0 -0.18484,0 -0.64913,0 -0.14656,0.0901 -0.55452,-0.19118 -0.66473,-0.45837 -1.24074,-0.46365 -1.66355,-1.33828 -0.12785,-0.26448 0,-0.83631 0,-1.14709 0,-0.31864 -0.0974,-0.65363 0,-0.95591 0.23425,-0.72686 1.90821,-2.11847 2.58774,-2.29419 0.17932,-0.0464 0.3752,0.0464 0.55452,0 0.45453,-0.11753 0.72571,-0.38236 1.29387,-0.38236 0.41779,0 1.84839,-0.23737 1.84839,0.19118"
         id="path68397-8-0" />
      <path
         style="fill:none;stroke:#000000;stroke-width:0.16594481;stroke-linecap:butt;stroke-linejoin:miter;stroke-opacity:1;stroke-miterlimit:4;stroke-dasharray:none"
         d="m 86.326855,153.34436 c -0.76501,-0.59587 -1.75625,-0.36638 -2.66398,-0.36638 -0.79037,0 -1.73415,0.0977 -2.47243,-0.28414 -0.11583,-0.0599 -0.15889,-0.22424 -0.27472,-0.28414 -0.0819,-0.0423 -0.19619,0.0487 -0.27471,0 -1.09751,-0.68111 -2.01213,-2.37293 -1.37358,-3.69386 0.11342,-0.23464 0.44779,-0.72884 0.68679,-0.85243 0.0819,-0.0423 0.18492,0.0186 0.27471,0 0.82315,-0.17028 1.65518,-0.5896 2.47244,-0.71036 0.93855,-0.13868 2.28286,-0.0845 3.15923,0.14207 0.21432,0.0554 0.62782,-0.10153 0.82414,0 0.11792,0.061 -0.4932,0.41458 -0.54943,0.42621 -0.34715,0.0718 -1.03533,0.05 -1.37358,0 -0.13735,-0.0473 -0.27471,-0.0947 -0.41207,-0.14207 -0.0458,-0.0474 -0.0759,-0.12089 -0.13736,-0.14207 -1.72872,-0.59602 -2.19085,-1.03238 -3.29658,-2.55729 -0.19958,-0.27524 -0.47534,-0.36554 -0.54943,-0.71035 -0.14856,-0.69145 -0.13736,-1.29806 -0.13736,-1.98901 0,-1.99017 0.72406,-2.27314 2.47244,-2.27314 0.54943,0 1.09886,0 1.64829,0 0.13736,0 0.41207,0.14206 0.41207,0 0,-0.006 -0.3852,0.007 -0.41207,0 -0.26024,-0.0673 -0.72483,-0.18623 -0.9615,-0.28415 -0.17716,-0.0733 -0.86992,-0.65623 -0.96151,-0.71035 -0.12571,-0.0743 -0.2916,-0.059 -0.41207,-0.14208 -0.44918,-0.30973 -0.76906,-1.06517 -0.9615,-1.56278 -0.0922,-0.23848 0.0615,-0.65624 0.13736,-0.85244 0.0916,-0.23677 0.12677,-0.50633 0.27471,-0.71035 0.56101,-0.77368 3.98403,-1.81825 4.94488,-1.42072 0.18552,0.0767 1.4989,1.11169 1.64829,1.42072 0.005,0.0106 0.21849,0.56829 0.13736,0.56829 -0.0648,0 -0.0794,-0.11213 -0.13736,-0.14208 -0.47553,-0.24592 -0.58329,-0.35417 -0.82415,-0.85243 -0.48526,-1.00384 -1.47179,-3.38909 -1.09886,-4.54629 0.0844,-0.26196 0.31292,-0.45397 0.41207,-0.71035 0.26887,-0.69524 0.4326,-1.42997 0.68679,-2.13108 0.15834,-0.43672 0.40683,-0.83616 0.54943,-1.27865 0.0881,-0.27328 0.0339,-0.58497 0.13736,-0.85243 0.085,-0.21985 0.30089,-0.36129 0.41207,-0.56828 0.30506,-0.56795 0.37852,-1.28894 0.68679,-1.84694 0.11358,-0.20559 0.3191,-0.3519 0.41207,-0.56828 0.0948,-0.22067 0.0172,-0.50329 0.13736,-0.71036 0.18374,-0.31673 2.59004,-2.71298 2.6098,-2.69936 0.32927,0.22705 0.44464,1.57597 0.54943,1.84693 0.0481,0.12437 0.2168,0.16434 0.27471,0.28414 0.0835,0.17265 0.53051,1.81282 0.54943,1.98901 0.0253,0.23533 -0.0555,0.48064 0,0.71036 0.0846,0.34989 0.30953,0.64978 0.41208,0.9945 0.23248,0.78151 0.35827,1.62436 0.54943,2.41521 0.10579,0.43768 0.41207,0.69335 0.41207,1.13658 0,0.17904 0.12656,1.14774 0,1.27865 -0.0324,0.0335 -0.10498,-0.0336 -0.13736,0 -0.11104,0.11485 -0.31956,0.51898 -0.41207,0.71035 -0.041,0.0847 0.0648,0.21717 0,0.28414 -0.0648,0.067 -0.19281,0.0423 -0.27472,0 -0.56631,-0.29287 0.1305,-1.92507 0.27472,-2.27314 0.36624,-0.88389 1.39198,-1.79693 2.19772,-2.27315 0.92717,-0.548 4.429885,-2.07169 5.219585,-0.71036 0.73453,1.26622 0.86372,3.31793 0,4.54629 -0.52928,0.75275 -1.31015,1.35512 -1.923005,1.98901 -0.11673,0.12074 -0.14264,0.32377 -0.27471,0.42622 -0.0733,0.0569 -0.19281,-0.0423 -0.27472,0 -0.38602,0.19963 -0.34394,0.42621 -0.82414,0.42621 -0.0458,0 0.10498,0.0335 0.13736,0 0.28419,-0.29395 -0.4343,0.0115 0.13735,-0.28415 0.30534,-0.1579 0.81596,-0.20675 1.09886,-0.42621 0.571635,-0.44344 0.798215,-0.24192 1.510935,-0.42622 1.0104,-0.26126 2.44729,-0.87843 3.29658,0 0.5329,0.5512 0.54943,1.27447 0.54943,1.98901 0,0.37885 0.0602,0.76287 0,1.13657 -0.18216,1.13046 -1.43898,2.29006 -2.47243,2.55729 -0.17768,0.0459 -0.36813,-0.0268 -0.54944,0 -0.38639,-0.29834 -0.34864,0.2426 -0.54942,0.28414 -0.0602,0.0125 -0.96251,0.0705 -1.09887,0 -0.44727,-0.23131 0.83355,-0.63056 1.37358,-0.71035 1.44234,-0.21313 4.37828,-1.60423 5.21959,0.42621 0.1604,0.38711 0.62402,1.55057 0.41207,1.989 -0.16591,0.34322 -0.21844,0.22595 -0.54943,0.56829 -0.14282,0.14773 -0.31174,0.54646 -0.54943,0.71035 -1.23964,0.8548 -2.67583,1.13658 -4.12073,1.13658 -0.18314,0 0.37176,0.046 0.54943,0 0.0654,-0.0169 0.34673,-0.26725 0.41208,-0.28415 1.49906,-0.38762 -0.71141,0.45352 0.82414,-0.14206 1.15773,-0.44906 5.21959,-1.22509 5.21959,0.99449 0,0.92374 -0.246,0.47498 -0.54943,0.71037 -0.13207,0.10245 -0.15798,0.30547 -0.27471,0.42621 -0.11674,0.12074 -0.29534,0.1634 -0.41208,0.28414 -0.12877,0.1332 -0.22931,0.44227 -0.41207,0.56829 -0.73009,0.50343 -2.29561,1.59653 -3.02187,1.84693 -1.11107,0.38307 0.062,-0.15957 -1.51093,0.28414 -0.51605,-0.33261 -0.43351,0.3389 -0.68679,0.42622 -1.11552,0.3846 -1.75099,-0.0226 -2.845635,-0.50006"
         id="path68417-5-5" />
      <path
         style="fill:none;stroke:#000000;stroke-width:0.16594481;stroke-linecap:butt;stroke-linejoin:miter;stroke-opacity:1;stroke-miterlimit:4;stroke-dasharray:none"
         d="m 110.72555,182.02168 c -0.30806,0.44609 -0.68716,0.84795 -0.92419,1.33827 -0.0616,0.12746 0.24176,-0.13826 0.36967,-0.19118 0.18091,-0.0748 0.39865,-0.0703 0.55452,-0.19118 0.11022,-0.0855 0.0874,-0.2816 0.18484,-0.38237 0.38905,-0.4024 0.8912,-0.7306 1.29387,-1.14709 0.59996,-0.62054 0.47858,-0.91491 0.92419,-1.52946 0.0827,-0.114 0.2988,-0.069 0.36968,-0.19118 0.30582,-0.52719 0.91309,-4.73496 0.55452,-5.35309 -0.1143,-0.19703 -0.3768,-0.2445 -0.55452,-0.38237 -0.33784,-0.26207 -0.46026,-0.83594 -0.92419,-0.95591 -0.22602,-0.0585 -1.84936,-0.19018 -2.03323,0 -0.3107,0.32137 1.46574,0.005 1.47871,0 0.20626,-0.0853 0.34826,-0.29703 0.55452,-0.38236 0.40451,-0.16736 0.89343,-0.0136 1.29387,-0.19118 0.58122,-0.25765 1.33436,-0.93954 1.84838,-1.33828 1.60104,-1.24198 2.21807,-3.56079 2.21807,-5.54428 0,-0.19119 0.0951,-0.40961 0,-0.57355 -1.24303,-2.14281 -5.49543,-3.06748 -7.76323,-2.67655 -1.27941,-0.80074 -0.34376,0.30971 -0.55451,0.38236 -0.17535,0.0605 -0.37916,-0.0605 -0.55452,0 -0.1307,0.045 -0.0616,0.31864 -0.18484,0.38237 -0.0551,0.0285 -0.18484,-0.0637 -0.18484,0 0,0.23255 0.5285,-0.57355 1.29388,-0.57355 0.46489,-0.83881 2.25497,-2.56139 2.4029,-3.63246 0.0349,-0.25235 -0.0405,-0.51329 0,-0.76473 0.11386,-0.70657 0.62397,-1.38692 0.73935,-2.103 0.0801,-0.49686 0,-1.22922 0,-1.72064 0,-0.19118 0.0827,-0.40255 0,-0.57354 -0.0616,-0.12746 -0.25504,-0.11214 -0.36967,-0.19119 -0.2175,-0.14997 -0.3454,-0.41132 -0.55452,-0.57354 -1.37534,-1.06691 -4.47176,-1.23655 -6.09968,-0.95591 -0.13625,0.0235 -0.96531,0.23371 -1.10903,0.38236 -0.0436,0.045 0.0436,0.14612 0,0.19118 -0.0272,0.0281 -0.55451,-0.0225 -0.55451,0 0,0.0964 0.45951,-0.52442 0.55451,-0.57354 0.11022,-0.057 0.28255,0.0901 0.36968,0 0.0436,-0.0451 -0.0513,-0.15584 0,-0.19119 0.3439,-0.23713 0.75462,-0.3536 1.10903,-0.57354 0.68796,-0.42694 1.27802,-0.93952 1.84839,-1.52946 0.1307,-0.13519 -0.0686,-0.39604 0,-0.57355 0.24888,-0.64356 0.69822,-1.395 0.18484,-2.103 -1.06761,-1.47232 -4.48028,-1.35646 -6.09968,-1.14709 -0.6083,0.0786 -0.93461,0.46099 -1.47871,0.57354 -0.18125,0.0375 -0.37916,-0.0605 -0.55451,0 -0.542695,0.18711 -0.828625,0.71531 -1.293865,0.95592 -3e-5,1e-5 0.19845,-0.39645 0.55451,-0.76473"
         id="path68407-0-5" />
      <path
         style="fill:#966f32;fill-opacity:0.972549;fill-rule:nonzero;stroke:#000000;stroke-width:0.16594481;stroke-linecap:round;stroke-linejoin:round;stroke-miterlimit:4;stroke-dasharray:none;stroke-dashoffset:0;stroke-opacity:1"
         d="m 92.711685,226.11386 c -1.79071,-0.0326 -3.26693,-0.0686 -3.28049,-0.0799 -0.0136,-0.0113 -0.0247,-2.10081 -0.0247,-4.64325 v -4.6226 l 0.36998,-0.003 c 0.40065,-0.003 2.30005,-0.26216 3.29392,-0.44856 0.33886,-0.0636 0.99613,-0.1534 1.46061,-0.19965 0.46447,-0.0463 0.99989,-0.12398 1.18981,-0.17272 0.54047,-0.13872 4.759745,-0.0113 4.809945,0.14528 0.024,0.0748 -0.0442,0.12756 -0.16465,0.12756 -0.11305,0 -0.20554,0.0459 -0.20554,0.10205 0,0.0561 0.10381,0.10204 0.23069,0.10204 h 0.2307 l 0.0653,3.38422 c 0.0359,1.86132 0.0653,4.06554 0.0653,4.89827 v 1.51402 l -2.392535,-0.0221 c -1.31589,-0.0122 -3.85765,-0.0488 -5.64835,-0.0814 z"
         id="path68705-0-2" />
      <path
         style="fill:none;stroke:#000000;stroke-width:0.16594481;stroke-linecap:butt;stroke-linejoin:miter;stroke-miterlimit:4;stroke-dasharray:none;stroke-opacity:1"
         d="m 89.284275,216.24328 c 0.12297,0.16124 0.18139,0.41619 0.36891,0.48374 0.2196,0.0791 0.45987,-0.0722 0.69062,-0.10205 0.29551,-0.0382 0.59197,-0.068 0.88796,-0.10205 1.12538,-0.12933 2.23485,-0.36548 3.35448,-0.51023 0.1958,-0.0253 0.39733,0.0336 0.59197,0 0.20516,-0.0354 0.38639,-0.17139 0.59196,-0.20409 0.39006,-0.0621 0.7893,0 1.18394,0 1.05239,0 2.10477,0 3.157155,0 0.25047,0 0.49331,0.0348 0.49331,0.30613 0,0.068 0.0465,0.156 0,0.2041 -0.0682,0.0705 -0.39507,8e-5 -0.39465,0 0.17729,-0.0307 0.35622,-0.0504 0.53433,-0.0756"
         id="path68666-4-6" />
      <path
         style="fill:none;stroke:#000000;stroke-width:0.16594481;stroke-linecap:butt;stroke-linejoin:miter;stroke-miterlimit:4;stroke-dasharray:none;stroke-opacity:1"
         d="m 85.772335,182.78641 c -0.63207,1.54668 -1.1588,2.48833 0.34041,3.26365 0.45555,0.23559 0.91408,0.37972 1.44029,0.27086 0.1914,-0.0396 0.33438,-0.22189 0.52374,-0.27086 0.3822,-0.0988 0.80347,-0.0769 1.17842,-0.27085 0.37294,-0.19288 0.86343,-0.48678 1.17841,-0.81257 0.29685,-0.30703 -0.0781,-0.29819 0.39281,-0.54172 0.0781,-0.0404 0.17458,0 0.26187,0 0.0202,0 -0.3584,0.0999 -0.39281,0.13543 -0.0617,0.0638 0.0484,0.19573 0,0.27086 -0.0541,0.084 -0.19286,0.0641 -0.26187,0.13543 -0.15096,0.15613 0.0532,0.94937 0.13094,1.08342 0.5383,0.92797 1.57545,1.6802 2.6187,1.89601 1.3245,0.27399 2.79293,-0.14439 4.059,-0.40629 0.51898,-0.10735 0.25439,0.14059 0.65467,-0.13542 0.12225,-0.0843 0.3089,-0.14068 0.39281,-0.27086 0.0714,-0.11077 0.67634,-1.35429 0.65468,-1.35429 -0.2249,0 0.22203,0.4637 0.52374,0.54171 1.157615,0.29934 2.336555,0.59449 3.535245,0.67714 0.62314,0.043 4.00132,0.19509 4.4518,-0.27085 0.11127,-0.11509 0.13598,-0.30863 0.26187,-0.40629 0.0698,-0.0542 0.20014,0.0639 0.26187,0 0.0416,-0.043 0.53071,-1.91763 0.65467,-2.30229 0.0655,-0.20314 -0.13093,-0.13543 0,-0.40628 0.0412,-0.0852 0.94451,0.0266 1.04749,0 0.0623,-0.0161 0.33051,-0.25475 0.3928,-0.27086 0.12703,-0.0329 0.27124,0.0503 0.39281,0 0.11461,-0.0474 0.15145,-0.21376 0.26187,-0.27086 0.12345,-0.0638 0.42768,0.002 0.3928,-0.13543 -0.0815,-0.32286 -0.26388,-0.60902 -0.39582,-0.91352"
         id="path68553-1-5" />
      <path
         style="fill:none;stroke:#000000;stroke-width:0.16594481;stroke-linecap:butt;stroke-linejoin:miter;stroke-miterlimit:4;stroke-dasharray:none;stroke-opacity:1"
         d="m 86.326855,153.34436 c 0.90615,-0.81101 2.19431,0.004 3.19021,-0.33892 0.30896,-0.10652 0.64544,-0.35478 0.91654,-0.54171 0.16652,-0.11482 0.82135,-0.77562 0.52375,-1.08343 -0.1531,-0.15836 -0.68658,0.64415 -0.52375,0.81257 0.0617,0.0638 0.17906,-0.0286 0.26187,0 0.0926,0.032 0.16561,0.11883 0.26188,0.13543 0.85745,0.14781 3.87248,0.16416 4.71366,-0.27086 0.23052,-0.11921 0.0774,-0.18481 0.13094,-0.40629 0.15807,-0.65397 0.0622,0.007 0.26187,-0.40628 0.14552,-0.30103 -0.28806,-1.59805 -0.65468,-1.21886 -0.0347,0.0359 0,0.35052 0,0.40629 0,0.0557 -0.0347,0.37043 0,0.40628 0.47024,0.48637 1.69902,0.54172 2.35684,0.54172 0.36002,0 1.80168,0.0325 2.09496,-0.27086 0.263475,-0.27252 0.729285,-1.02365 0.785605,-1.48972 0.0778,-0.64386 0,-1.37976 0,-2.03143 0,-0.0903 0.0651,-0.21068 0,-0.27086 -0.29771,-0.27533 -0.674205,-0.44296 -1.011315,-0.66444"
         id="path68551-9-4" />
      <path
         style="fill:#5c7e23;fill-opacity:1;fill-rule:nonzero;stroke:#000000;stroke-width:0.16594481;stroke-linecap:round;stroke-linejoin:round;stroke-miterlimit:4;stroke-dasharray:none;stroke-dashoffset:0;stroke-opacity:1"
         d="m 83.684175,218.88114 c -1.32177,-0.44329 -3.91028,-2.07748 -4.58816,-2.89661 -0.64193,-0.77569 -0.92504,-1.98995 -0.71088,-3.04903 0.0479,-0.23705 0.27213,-0.60098 0.61533,-0.99882 0.54995,-0.63748 0.64485,-0.86083 0.40608,-0.9556 -0.35425,-0.1406 -0.7486,0.34071 -1.19806,1.46225 -0.12962,0.32344 -0.61847,0.42804 -1.8076,0.38678 -0.75267,-0.0261 -0.93717,-0.0643 -1.01618,-0.21049 -0.0534,-0.0987 -0.2113,-0.17858 -0.3531,-0.17858 -0.45221,0 -2.83364,-1.69689 -3.90968,-2.78584 -0.69912,-0.70751 -1.10966,-1.31118 -1.28549,-1.89019 -0.0826,-0.27209 -0.17143,-1.1279 -0.20653,-1.99016 l -0.0615,-1.5128 0.43355,-0.4261 c 0.23845,-0.23435 0.48656,-0.56759 0.55136,-0.74052 0.13574,-0.3623 0.72785,-0.90238 1.55463,-1.41803 0.57248,-0.35705 0.58198,-0.359 1.75952,-0.36149 0.97606,-0.002 1.26158,-0.0389 1.62614,-0.20997 0.48425,-0.22719 0.81014,-0.48994 0.74432,-0.6001 -0.0232,-0.0387 -0.50767,-0.0815 -1.07671,-0.095 -0.95508,-0.0227 -1.08861,-0.001 -1.73706,0.28069 l -0.70246,0.30527 -0.53538,-0.19053 c -1.00861,-0.35892 -1.94407,-1.19456 -2.38972,-2.13469 -0.39593,-0.83527 -0.36569,-1.52542 0.11878,-2.71116 0.20639,-0.50513 0.43543,-1.00759 0.50897,-1.11657 0.28602,-0.42385 2.28072,-2.2284 2.66678,-2.41255 0.22417,-0.10694 0.48026,-0.30914 0.56908,-0.44934 0.20139,-0.31793 0.92102,-0.70124 1.717,-0.91458 0.33424,-0.0896 0.76514,-0.25895 0.95756,-0.37638 0.40019,-0.24422 2.07159,-0.43586 3.74835,-0.42979 1.1762,0.004 1.71847,0.18716 2.76279,0.93184 0.52681,0.37565 0.69775,0.55746 0.72158,0.76746 0.0411,0.36218 0.31409,0.36792 0.31409,0.007 0,-0.32461 -0.42538,-0.75896 -1.23045,-1.25638 -0.93043,-0.57488 -1.44491,-0.713 -2.66976,-0.71675 l -1.08836,-0.003 -0.55453,-0.58677 c -1.29755,-1.37299 -2.15276,-3.4048 -2.15215,-5.11311 3e-4,-0.90354 0.218,-2.49907 0.40909,-2.99853 0.15731,-0.41116 1.36163,-1.54181 2.37632,-2.23096 0.48748,-0.33109 0.92473,-0.60197 0.97166,-0.60197 0.0469,0 0.1563,0.14197 0.24305,0.31548 0.23866,0.47735 1.26091,1.48457 2.36321,2.32844 0.54263,0.41543 1.23787,0.95461 1.54497,1.1982 0.40829,0.32385 0.69108,0.46358 1.05214,0.51991 l 0.49377,0.077 -0.2513,0.61228 c -0.16054,0.39114 -0.25548,0.82171 -0.26285,1.19212 -0.0102,0.51287 0.0226,0.61706 0.28444,0.90226 0.66996,0.72982 1.71909,0.9559 2.71319,0.58469 0.24418,-0.0912 0.60063,-0.19187 0.7921,-0.22376 0.19147,-0.0319 0.57598,-0.21317 0.85447,-0.40287 l 0.50633,-0.34491 0.10672,0.43837 c 0.2127,0.87369 1.10701,1.74797 2.23423,2.18419 0.73898,0.28598 2.1366,0.28449 3.5667,-0.004 0.58609,-0.11815 1.17238,-0.21573 1.30287,-0.21685 0.44388,-0.004 0.84614,-0.3524 1.13967,-0.98763 l 0.27988,-0.60567 0.25687,0.18978 c 0.3393,0.25068 2.297695,0.69122 3.686205,0.82922 1.27325,0.12654 3.9173,0.0552 4.38554,-0.11832 0.17414,-0.0645 0.34362,-0.20535 0.37663,-0.31291 0.033,-0.10756 0.1441,-0.19556 0.24688,-0.19556 0.13234,0 0.21615,-0.11168 0.28718,-0.38268 0.0552,-0.21047 0.20873,-0.76732 0.34124,-1.23743 0.13252,-0.47012 0.21754,-0.91785 0.18893,-0.99496 -0.0404,-0.10887 0.0771,-0.14093 0.52584,-0.14345 0.33803,-0.002 0.6535,-0.0625 0.76011,-0.14607 0.10023,-0.0786 0.24618,-0.11744 0.32432,-0.0864 0.0781,0.031 0.21812,-0.0126 0.31106,-0.097 0.0929,-0.0844 0.26897,-0.18489 0.39117,-0.22341 0.17272,-0.0545 0.20945,-0.12249 0.16501,-0.30563 -0.0445,-0.18345 0.0112,-0.28597 0.25182,-0.46317 0.30007,-0.221 0.36224,-0.22604 2.15353,-0.17446 3.25167,0.0936 5.39287,0.70961 6.67296,1.91968 0.67351,0.63668 0.7854,0.99764 0.72375,2.33499 -0.05,1.08414 -0.29105,1.81216 -0.68951,2.0822 -0.48741,0.33032 -1.93893,0.77512 -2.52947,0.77512 -0.83368,0 -1.79056,0.11684 -1.79056,0.21863 0,0.0481 0.57417,0.0875 1.27593,0.0875 1.09017,0 1.43922,0.0435 2.39755,0.29912 3.31684,0.88457 6.14493,2.7287 7.28779,4.75222 0.52341,0.92674 0.7025,1.70025 0.7088,3.06142 0.0121,2.61248 -0.7889,4.06527 -2.81095,5.09831 -1.73219,0.88495 -4.71329,1.40673 -7.01801,1.22835 -0.81095,-0.0628 -0.86966,-0.0544 -0.83752,0.11945 0.0285,0.15392 0.16514,0.1987 0.77342,0.25341 0.68393,0.0615 2.38056,0.592 3.06618,0.95872 0.6712,0.359 1.17711,1.38786 1.17344,2.38642 -0.004,1.19406 -0.58178,2.89413 -1.38441,4.07626 -0.82884,1.22072 -2.48904,2.50897 -3.82611,2.96891 -1.20832,0.41565 -2.08957,0.3927 -5.19654,-0.13534 l -0.69062,-0.11738 -0.0493,-0.71305 c -0.0397,-0.57357 -0.0831,-0.71969 -0.22199,-0.74698 -0.15289,-0.03 -0.17266,0.0604 -0.17266,0.78992 0,0.48121 0.041,0.82386 0.0987,0.82386 0.13365,0 0.12817,1.84507 -0.007,2.21289 -0.16692,0.45565 -0.48607,0.73837 -1.01797,0.90175 -0.27141,0.0834 -0.52773,0.20882 -0.56959,0.27879 -0.0537,0.0897 -0.38945,0.12472 -1.14022,0.11877 -0.86329,-0.007 -1.22237,-0.0599 -1.90273,-0.2814 -0.46124,-0.15013 -1.43799,-0.43892 -2.17055,-0.64175 -0.73256,-0.20282 -1.69513,-0.54241 -2.13904,-0.75464 -0.44392,-0.21223 -0.83239,-0.35973 -0.86329,-0.32778 -0.0309,0.0319 -0.0562,-0.0168 -0.0562,-0.10839 0,-0.0916 -0.0859,-0.21403 -0.19083,-0.27213 -0.23932,-0.13247 -4.557765,-0.14301 -4.981875,-0.0122 -0.40791,0.12586 -4.70257,0.72651 -5.38326,0.75291 -0.47714,0.0185 -0.55357,-0.006 -0.64002,-0.2086 -0.1163,-0.27196 -0.1756,-0.27775 -0.75464,-0.0737 -0.60169,0.21205 -1.15527,0.70685 -1.3697,1.22428 -0.16305,0.39343 -0.26935,0.47787 -1.26449,1.00436 -1.20853,0.63939 -1.48501,0.68366 -2.38492,0.38185 z"
         id="path68744-7-6" />
      <path
         style="fill:#5c7e23;fill-opacity:1;fill-rule:nonzero;stroke:#000000;stroke-width:0.16594481;stroke-linecap:round;stroke-linejoin:round;stroke-miterlimit:4;stroke-dasharray:none;stroke-dashoffset:0;stroke-opacity:1"
         d="m 92.868675,187.76719 c -0.7331,-0.25169 -1.14772,-0.51978 -1.68433,-1.08907 -0.63327,-0.67183 -0.9424,-1.56379 -0.5904,-1.7035 0.084,-0.0334 0.15276,-0.12598 0.15276,-0.20585 0,-0.0799 0.10311,-0.19664 0.22914,-0.25951 0.22715,-0.11331 0.22679,-0.11436 -0.0409,-0.12143 -0.19988,-0.005 -0.32154,0.0818 -0.46846,0.33521 -0.25712,0.44352 -1.21265,1.03009 -1.88347,1.1562 -0.29001,0.0545 -0.65279,0.16626 -0.80619,0.2483 -0.40597,0.21714 -0.87874,0.18191 -1.48655,-0.11077 -1.11252,-0.53573 -1.27207,-1.0695 -0.73817,-2.46959 0.16377,-0.42946 0.2781,-0.81375 0.25407,-0.85397 -0.024,-0.0402 -0.28182,-0.10229 -0.57285,-0.13794 -0.35518,-0.0435 -0.61565,-0.14784 -0.79223,-0.31733 -0.1447,-0.13889 -0.72136,-0.59886 -1.28148,-1.02216 -1.36976,-1.03519 -2.02404,-1.62863 -2.50221,-2.26954 -0.22012,-0.29502 -0.40021,-0.56757 -0.40021,-0.60567 0,-0.14252 0.48976,-0.0629 0.54602,0.0887 0.0709,0.19108 0.26932,0.21064 0.26713,0.0263 -0.003,-0.28824 -0.19004,-0.42002 -0.58683,-0.41435 -0.40792,0.006 -0.40907,0.005 -0.71873,-0.71162 -0.91821,-2.12403 -0.87679,-3.90447 0.11593,-4.98282 0.6212,-0.67478 2.13372,-1.57768 2.74458,-1.63839 0.26821,-0.0267 0.51231,-0.0897 0.54246,-0.14019 0.0689,-0.11533 0.0735,-0.11504 -1.62626,-0.10281 -1.24616,0.009 -1.45355,-0.0148 -1.74329,-0.20004 -0.18086,-0.11561 -0.48384,-0.21032 -0.67327,-0.21046 -0.19993,-1.1e-4 -0.83055,-0.23213 -1.50326,-0.55301 -1.06158,-0.50635 -1.16845,-0.58371 -1.273,-0.92143 -0.083,-0.26822 -0.22144,-0.42286 -0.50798,-0.56758 -0.51402,-0.25961 -0.98109,-1.23817 -1.05684,-2.21422 -0.0667,-0.85838 0.061,-1.23724 0.80276,-2.38434 0.6683,-1.03341 1.3204,-1.68061 1.69334,-1.68061 0.15496,0 0.36338,-0.14105 0.56725,-0.38389 0.56439,-0.67228 2.67206,-1.56796 4.01212,-1.70499 0.69941,-0.0715 0.87968,-0.23772 0.36228,-0.33401 -0.40023,-0.0745 -1.33471,-0.62296 -1.73151,-1.01628 -0.33451,-0.33157 -0.33474,-0.33254 -0.33474,-1.37988 0,-0.99543 0.0152,-1.06981 0.303,-1.48071 0.57983,-0.82791 1.9523,-1.79425 2.5485,-1.79437 0.19604,-4e-5 0.51684,-0.0693 0.71288,-0.15394 0.5325,-0.22986 1.88175,-0.33238 2.25724,-0.17151 0.26374,0.11299 0.35232,0.10473 0.61814,-0.0577 0.32073,-0.19596 1.0728,-0.2371 2.01292,-0.11009 0.53693,0.0725 0.96383,-0.0406 1.59343,-0.42222 0.44923,-0.2723 0.48818,-0.27678 2.61378,-0.30019 2.51251,-0.0277 2.87823,-0.10957 3.06211,-0.6856 l 0.11405,-0.35726 1.85029,-0.0114 c 2.12006,-0.0131 2.13269,-0.0181 2.630145,-1.05065 0.22798,-0.4732 0.25509,-0.65882 0.25506,-1.74648 l -3e-5,-1.217 h 0.87445 c 0.80983,0 0.8897,-0.0195 1.0808,-0.26333 0.11349,-0.14484 0.30431,-0.27015 0.42403,-0.27848 0.84478,-0.0588 1.73245,-0.26461 2.20189,-0.51066 0.4354,-0.2282 0.63625,-0.27507 0.97374,-0.22723 0.70381,0.0998 1.56501,0.48749 1.93663,0.87187 0.42203,0.43651 0.46043,0.90071 0.14335,1.73275 -0.11375,0.29849 -0.18104,0.6267 -0.14954,0.72936 0.10242,0.33378 -1.11293,1.32703 -2.56912,2.09963 -0.46078,0.24447 -0.96054,0.59487 -1.11058,0.77866 l -0.27281,0.33416 0.38964,0.0338 c 0.26734,0.0232 0.41656,-0.016 0.47542,-0.12479 0.048,-0.0887 0.42835,-0.23738 0.86314,-0.33743 1.04291,-0.24 3.29227,-0.16246 4.44683,0.15328 0.88687,0.24252 1.76297,0.69134 1.91209,0.97954 0.0537,0.10384 0.23865,0.26419 0.41092,0.35634 l 0.31323,0.16753 -0.041,1.17657 c -0.0369,1.05822 -0.0754,1.25604 -0.38265,1.96658 -0.22729,0.52553 -0.36566,1.04149 -0.41331,1.54117 -0.0805,0.84409 -0.25743,1.17419 -1.42498,2.65875 -0.65038,0.82697 -0.66864,0.84066 -1.04386,0.78278 -0.37204,-0.0574 -0.3819,-0.0504 -0.3819,0.27057 0,0.24286 -0.0468,0.32995 -0.17822,0.33129 -0.24807,0.002 -0.69559,0.50585 -0.56754,0.63831 0.0652,0.0674 0.19091,0.0292 0.36248,-0.11044 0.14446,-0.11753 0.32785,-0.21369 0.40755,-0.21369 0.0797,0 0.37034,-0.1183 0.64589,-0.2629 0.60056,-0.31514 1.4282,-0.34656 2.84917,-0.10819 1.89833,0.31847 3.54896,1.0559 4.45037,1.98826 l 0.50832,0.52576 -0.0705,0.99378 c -0.19432,2.73809 -1.06999,4.29596 -3.29271,5.85794 -0.55896,0.3928 -0.79702,0.49356 -1.2958,0.54843 -0.33607,0.037 -0.71254,0.13273 -0.83659,0.2128 -0.13744,0.0887 -0.5154,0.1462 -0.96748,0.14718 -0.82377,0.002 -1.06109,0.0937 -0.95816,0.37119 0.0699,0.1884 0.47554,0.185 1.67922,-0.0141 0.4274,-0.0707 0.48886,-0.0313 1.09158,0.70034 0.11674,0.14169 0.34588,0.35797 0.5092,0.48061 0.29669,0.22278 0.29693,0.22388 0.27166,1.25424 -0.0239,0.975 -0.19063,2.3114 -0.43593,3.49448 -0.0791,0.38146 -0.17388,0.55988 -0.33869,0.63755 -0.12587,0.0593 -0.37251,0.38572 -0.54809,0.72534 -0.17558,0.33961 -0.49404,0.79094 -0.70769,1.00295 -0.33682,0.33422 -0.47181,0.39358 -1.01541,0.44652 -0.34483,0.0336 -0.74582,0.10781 -0.8911,0.16494 -0.31004,0.12192 -0.35535,0.42509 -0.0635,0.42509 0.19026,0 0.18763,0.0198 -0.0509,0.38337 -0.13834,0.21085 -0.25153,0.44786 -0.25153,0.52667 0,0.10348 -0.15566,0.14331 -0.56012,0.14331 -0.49792,0 -0.56011,0.0241 -0.56011,0.2173 0,0.11952 -0.14443,0.73572 -0.32094,1.36935 -0.25362,0.91041 -0.35899,1.15204 -0.50234,1.15204 -0.0998,0 -0.20959,0.0919 -0.24404,0.20417 -0.11762,0.38329 -0.6871,0.47847 -2.80259,0.4684 -1.9804,-0.009 -2.42063,-0.0589 -4.30706,-0.48445 -0.700235,-0.15794 -1.075175,-0.29963 -1.258855,-0.4757 -0.14388,-0.13792 -0.26935,-0.23628 -0.27882,-0.21859 -0.01,0.0177 -0.14635,0.31993 -0.30418,0.67163 -0.15784,0.35171 -0.38354,0.70184 -0.50156,0.77808 -0.33335,0.21533 -2.56088,0.64187 -3.63531,0.69611 -0.76795,0.0388 -1.08643,0.008 -1.54426,-0.14918 z"
         id="path75838-8-4" />
      <path
         style="fill:#5c7e23;fill-opacity:1;fill-rule:nonzero;stroke:#000000;stroke-width:0.16594481;stroke-linecap:round;stroke-linejoin:round;stroke-miterlimit:4;stroke-dasharray:none;stroke-dashoffset:0;stroke-opacity:1"
         d="m 85.875545,152.95281 c -0.37369,-0.11619 -1.15046,-0.16786 -2.25478,-0.14998 -1.63296,0.0265 -2.51595,-0.13001 -2.51595,-0.44581 0,-0.0643 -0.10134,-0.11911 -0.22521,-0.12175 -0.51773,-0.011 -1.34618,-1.0626 -1.59492,-2.02452 -0.13336,-0.51574 -0.12366,-0.69134 0.0666,-1.20675 0.28743,-0.77845 0.43331,-0.8921 1.54051,-1.20013 2.17618,-0.60542 2.26761,-0.61356 3.02809,-0.26944 1.07425,0.48611 2.84743,0.40433 2.84743,-0.13132 0,-0.17281 -1.96956,-0.4914 -3.02165,-0.48876 -0.67533,0.002 -1.44534,-0.55407 -2.43466,-1.75724 -0.81782,-0.9946 -0.9707,-1.43395 -0.96289,-2.76724 0.007,-1.12108 0.23461,-1.7388 0.75885,-2.05548 0.38589,-0.23311 0.67384,-0.27062 2.08865,-0.27217 0.90258,-8.2e-4 1.64111,-0.0439 1.64117,-0.0954 1.2e-4,-0.0913 -0.82782,-0.37009 -1.1033,-0.37157 -0.076,-4.7e-4 -0.42331,-0.21039 -0.77175,-0.46662 -0.34845,-0.25624 -0.70739,-0.46589 -0.79765,-0.46589 -0.24473,0 -0.93061,-1.1945 -0.93061,-1.6207 0,-0.75364 0.36483,-1.38676 1.00478,-1.74367 0.78342,-0.43693 2.1182,-0.85585 3.08889,-0.96943 0.94965,-0.11114 1.43111,0.13366 1.75464,0.89213 0.19131,0.44849 0.90098,1.17879 1.14548,1.17879 0.0464,0 0.0844,-0.16076 0.0844,-0.35724 0,-0.25617 -0.18898,-0.54567 -0.66794,-1.02316 -0.56636,-0.56464 -0.72294,-0.83519 -1.02955,-1.77893 -0.41033,-1.26297 -0.47152,-2.34288 -0.15892,-2.80449 0.11147,-0.16462 0.39282,-0.8833 0.62522,-1.59706 0.2324,-0.71377 0.50988,-1.47594 0.61663,-1.69371 0.10675,-0.21776 0.23489,-0.62873 0.28475,-0.91325 0.0499,-0.28452 0.20139,-0.67387 0.33671,-0.86522 0.13532,-0.19135 0.36059,-0.69486 0.50059,-1.11891 0.14001,-0.42406 0.37266,-0.92632 0.51701,-1.11612 0.14434,-0.1898 0.26244,-0.49258 0.26244,-0.67285 0,-0.23904 0.34959,-0.68406 1.29162,-1.64422 0.73848,-0.75269 1.31573,-1.24595 1.34792,-1.15178 0.031,0.0906 0.11901,0.4632 0.19565,0.82806 0.0767,0.36488 0.21671,0.75423 0.31124,0.86523 0.2096,0.24609 0.68193,2.03842 0.69041,2.61986 0.003,0.23177 0.0963,0.60163 0.2064,0.82192 0.11014,0.22029 0.34949,1.05884 0.5319,1.86343 l 0.33166,1.4629 -0.25939,0.5259 c -0.61444,1.24572 -0.66413,2.42522 -0.10217,2.42522 0.21696,0 0.33472,-0.1181 0.45187,-0.4532 0.0871,-0.24925 0.24355,-0.48697 0.34759,-0.52826 0.21914,-0.087 0.25697,-0.97202 0.0703,-1.64519 -0.11255,-0.40589 -0.0839,-0.46109 0.54181,-1.04293 1.58718,-1.47599 4.911575,-2.53 5.845555,-1.85336 0.74196,0.53752 1.05569,2.88137 0.54327,4.05872 -0.28604,0.65722 -2.249535,2.71999 -2.730175,2.86821 -0.4033,0.12438 -0.86428,0.44212 -0.86428,0.59574 0,0.20511 0.59474,0.15148 0.77216,-0.0697 0.0881,-0.10982 0.24533,-0.19967 0.34937,-0.19967 0.10404,0 0.33447,-0.11822 0.51207,-0.26273 0.177605,-0.14449 0.534205,-0.29898 0.792465,-0.3433 0.25825,-0.0443 0.95348,-0.20112 1.54495,-0.34843 1.27132,-0.31666 1.76743,-0.25436 2.26668,0.28463 0.31451,0.33955 0.37519,0.53686 0.45543,1.48081 0.10915,1.28398 0.0124,1.83301 -0.42826,2.43058 -0.29842,0.40468 -0.45424,0.47047 -1.96111,0.828 -1.83482,0.43536 -2.4923,0.74657 -2.24042,1.06048 0.2089,0.26035 1.20124,0.25663 1.4114,-0.006 0.0944,-0.11762 0.37848,-0.20056 0.6914,-0.20185 0.33633,-8.2e-4 0.72003,-0.12245 1.04597,-0.33001 0.97304,-0.61964 1.38223,-0.76371 1.9734,-0.69478 0.97291,0.11342 1.47615,0.69192 1.84089,2.11618 l 0.15962,0.62332 -0.56321,0.64123 c -0.7366,0.83865 -0.8544,0.89864 -2.4455,1.24545 -0.74321,0.16199 -1.4063,0.34688 -1.47355,0.41088 -0.0672,0.064 -0.28924,0.11634 -0.49332,0.11634 -0.24094,0 -0.35142,0.0583 -0.31504,0.1664 0.11188,0.33226 2.57471,-0.0357 3.47742,-0.51957 0.47262,-0.25332 1.99883,-0.29148 2.56365,-0.0641 0.56449,0.22726 0.87382,0.63413 0.87382,1.14937 0,0.27687 -0.0635,0.46589 -0.1564,0.46589 -0.086,0 -0.47693,0.3516 -0.86868,0.78134 -0.39176,0.42974 -1.05865,1.00688 -1.48199,1.28255 l -0.7697,0.50122 -1.7425,0.0317 c -1.48843,0.0271 -1.84252,0.0762 -2.42849,0.33696 -0.3773,0.16788 -0.78149,0.2983 -0.89819,0.28983 -0.28177,-0.0205 -1.197925,0.25087 -1.411095,0.41793 -0.2003,0.15696 -0.58087,0.88472 -0.50416,0.96407 0.0293,0.0303 0.28432,-0.11799 0.56669,-0.32955 0.4944,-0.37043 0.5242,-0.37624 0.805455,-0.1568 0.27538,0.21485 0.28943,0.30327 0.24602,1.54845 -0.0739,2.1189 -0.522535,2.58451 -2.488985,2.58293 -0.49547,-3.2e-4 -1.10759,-0.0361 -1.36026,-0.0793 -0.41146,-0.0704 -0.47478,-0.13804 -0.60664,-0.648 -0.22845,-0.88345 -0.80002,-0.97781 -0.80002,-0.13207 0,0.34438 0.0751,0.49493 0.3116,0.62442 0.29136,0.15955 0.30063,0.19749 0.14277,0.58391 -0.13589,0.33264 -0.26573,0.42882 -0.66551,0.49299 -1.15224,0.18494 -2.51938,0.2531 -3.31308,0.16518 -0.79841,-0.0884 -0.84127,-0.11012 -0.71186,-0.36022 0.16208,-0.31325 0.0705,-0.64467 -0.17807,-0.64467 -0.22513,0 -0.53234,0.58852 -0.4388,0.84062 0.0484,0.13036 -0.12915,0.30605 -0.54669,0.5411 -0.57899,0.32594 -0.69136,0.3427 -1.76756,0.26369 -0.67099,-0.0493 -1.25311,-0.0301 -1.3988,0.046 -0.17115,0.0894 -0.42859,0.0747 -0.81961,-0.0469 z"
         id="path75916-6-7" />
    </g>
  </g>
</svg>
