<?xml version="1.0" encoding="UTF-8" standalone="no"?>
<!-- Created with Inkscape (http://www.inkscape.org/) -->

<svg
   width="210mm"
   height="297mm"
   viewBox="0 0 210 297"
   version="1.1"
   id="svg5"
   inkscape:version="1.1.2 (b8e25be833, 2022-02-05)"
   sodipodi:docname="Logo.svg"
   xmlns:inkscape="http://www.inkscape.org/namespaces/inkscape"
   xmlns:sodipodi="http://sodipodi.sourceforge.net/DTD/sodipodi-0.dtd"
   xmlns="http://www.w3.org/2000/svg"
   xmlns:svg="http://www.w3.org/2000/svg">
  <sodipodi:namedview
     id="namedview7"
     pagecolor="#ffffff"
     bordercolor="#666666"
     borderopacity="1.0"
     inkscape:pageshadow="2"
     inkscape:pageopacity="0.0"
     inkscape:pagecheckerboard="0"
     inkscape:document-units="mm"
     showgrid="false"
     inkscape:zoom="0.71090067"
     inkscape:cx="397.38322"
     inkscape:cy="479.6732"
     inkscape:window-width="1920"
     inkscape:window-height="991"
     inkscape:window-x="-9"
     inkscape:window-y="-9"
     inkscape:window-maximized="1"
     inkscape:current-layer="layer1" />
  <defs
     id="defs2" />
  <g
     inkscape:label="Layer 1"
     inkscape:groupmode="layer"
     id="layer1">
    <path
       style="fill:#000000;fill-opacity:1;fill-rule:nonzero;stroke:none;stroke-width:0.264583"
       id="path60"
       d="m 54.268806,94.812632 c 2.500995,3.056771 4.874879,6.218818 7.483403,9.187288 1.351032,1.53746 3.551375,4.03452 5.391611,5.17079 0.683987,0.42233 1.506325,0.56195 2.259488,0.84293 2.70369,-0.96325 3.398404,-0.95382 5.62831,-4.44053 0.431437,-0.67461 0.07649,-1.60324 0.02267,-2.4022 -0.135067,-2.00576 -0.713652,-3.954693 -1.17961,-5.898791 1.037725,-1.749189 -2.094111,1.172829 -1.829996,2.049891 0.324699,1.07826 2.082464,0.86798 3.160742,1.19262 1.451959,0.43714 7.260664,1.97302 8.818237,1.27108 2.463561,-1.11023 4.191394,-3.411636 6.287092,-5.117457 -0.08822,-2.422533 0.176051,-4.883857 -0.26466,-7.267599 C 89.056143,84.046138 85.779985,76.164828 83.242665,71.43843 80.265692,65.893068 77.37644,61.65838 72.467459,57.695665 c -1.886916,-1.52319 -4.13506,-2.534467 -6.202588,-3.8017 -4.395843,-1.50741 -6.591506,-2.740702 -11.240317,-2.617845 -5.605746,0.148148 -10.798482,3.380851 -15.204945,6.465186 -0.910059,0.637003 -1.640989,1.497687 -2.461485,2.246532 -2.035268,2.30046 -3.502763,4.716476 -3.850204,7.80578 -0.04947,0.43988 -0.02848,0.884848 -0.04272,1.327274 0,0 3.454586,-1.746583 3.454586,-1.746583 v 0 c 0.01281,-0.420592 -0.0097,-0.843756 0.03845,-1.261774 0.337301,-2.926514 1.839595,-5.368317 3.799255,-7.512751 0.809225,-0.724498 1.653831,-1.411322 2.427679,-2.173494 0.09746,-0.09599 0.04037,-0.31437 0.161954,-0.377061 2.828835,-1.45861 5.605537,-2.608027 8.853832,-2.764382 4.663172,-0.224457 6.871991,0.964504 11.312572,2.388981 2.082128,1.226966 4.342932,2.191742 6.246386,3.680891 4.93362,3.859771 7.887536,8.066141 10.848097,13.570045 2.642605,4.912807 5.671579,12.373311 6.514997,17.970172 0.354406,2.351826 -0.04893,4.756507 -0.07339,7.134762 -0.04858,0.561131 0.390266,1.510379 -0.145733,1.683393 -1.95558,0.631239 -6.819913,-0.641681 -8.649581,-1.240396 -1.033235,-0.3381 -1.911905,-1.286433 -2.999041,-1.281681 -4.82433,0.02109 -4.622882,-0.149969 -4.766461,1.915948 0.526762,1.885288 1.118881,3.791508 1.205106,5.764088 0.03346,0.76541 -0.674394,1.77603 -0.111456,2.29572 0.605314,0.5588 1.821124,-0.62917 2.468541,-0.11974 0.460061,0.36201 -1.022664,0.57007 -1.533998,0.85511 -0.756394,-0.2263 -1.580883,-0.29213 -2.269183,-0.67889 -1.870178,-1.05086 -4.110437,-3.54327 -5.444347,-5.05526 -2.601185,-2.948469 -4.942957,-6.115589 -7.215135,-9.319762 0,0 -3.319531,1.964404 -3.319531,1.964404 z" />
    <path
       style="fill:#000000;fill-opacity:1;fill-rule:nonzero;stroke:none;stroke-width:0.264583"
       id="path62"
       d="m 99.520323,84.98012 c -1.731483,3.013247 -3.204958,6.233221 -4.217291,9.564465 -0.39977,1.315511 -1.006644,2.636025 -0.964854,4.010303 0.03697,1.215633 0.0388,3.061182 1.191679,3.448492 2.704142,0.90845 5.704143,-0.1158 8.556213,-0.1737 3.92216,-1.06179 7.9071,-1.91414 11.76647,-3.185344 4.2024,-1.384192 8.30632,-3.059454 12.38667,-4.770255 6.81377,-2.85686 14.30432,-6.557343 20.88544,-10.01408 2.48606,-1.305803 4.92374,-2.701718 7.38562,-4.052578 0,0 2.45209,-1.977998 2.45209,-1.977998 v 0 c -2.51699,1.399487 -5.00813,2.846514 -7.55097,4.198461 -6.63117,3.525597 -14.17528,7.29329 -21.05981,10.189602 -4.0403,1.699752 -8.10689,3.359224 -12.27377,4.719505 -3.74447,1.222388 -7.6168,2.011367 -11.4252,3.017049 -2.64349,0.09504 -5.41502,1.103368 -7.930479,0.285118 -1.088707,-0.354138 -1.119754,-2.093104 -1.146228,-3.237654 -0.03152,-1.36244 0.571193,-2.669143 0.979519,-3.969337 1.059016,-3.37212 2.594948,-6.638134 4.543558,-9.583719 0,0 -3.578657,1.53167 -3.578657,1.53167 z" />
    <circle
       id="path64"
       style="fill:#000000;stroke:#000000;stroke-width:0.264583"
       cx="307.79321"
       cy="70.714287"
       r="0.049574073" />
    <circle
       id="path66"
       style="fill:#0000ff;stroke:#000000;stroke-width:0.264583"
       cx="307.79321"
       cy="70.714287"
       r="0.049574073" />
    <circle
       id="path138"
       style="fill:#0000ff;stroke:#000000;stroke-width:0.264583"
       cx="209.16541"
       cy="297.74435"
       r="0.049574073" />
    <circle
       id="path140"
       style="fill:#0000ff;stroke:#000000;stroke-width:0.264583"
       cx="209.16541"
       cy="297.74435"
       r="0.049574073" />
    <circle
       id="path142"
       style="fill:#0000ff;stroke:#000000;stroke-width:0.264583"
       cx="-132.49625"
       cy="-8.1879692"
       r="1.2393616e-05" />
    <path
       style="fill:#0000ff;stroke-width:0.264583"
       id="path188"
       d="m 15.567068,44.524792 c 7.504346,5.152665 15.199756,10.01468 22.671846,15.216005 2.78888,1.94134 5.543248,3.931798 8.314875,5.897697 3.269205,2.268641 6.53841,4.537279 9.807614,6.805919 13.2993,9.1352 26.785546,18.040358 41.001902,25.699249 6.808915,3.668218 8.749765,4.475288 15.455155,7.620898 5.52163,2.4086 11.08067,4.87272 16.95524,6.30473 1.83034,0.44617 2.37162,0.48774 4.12986,0.74369 3.52315,0.15305 6.974,0.84909 10.41087,1.58999 2.0538,0.40866 4.0769,0.95149 6.10479,1.46937 0,0 8e-4,-5.3e-4 8e-4,-5.3e-4 v 0 c -2.0279,-0.51788 -4.051,-1.06071 -6.1048,-1.46937 -3.43687,-0.74091 -6.88771,-1.43697 -10.41087,-1.59 -1.75825,-0.25594 -2.29953,-0.2975 -4.12988,-0.74366 -5.87459,-1.43198 -11.43367,-3.89607 -16.95532,-6.30465 -6.70547,-3.14561 -8.64623,-3.95262 -15.45522,-7.620857 C 83.14755,90.484424 69.661285,81.579282 56.362007,72.444046 53.092815,70.175397 49.823621,67.906751 46.554429,65.638105 43.7828,63.67219 41.028434,61.681732 38.239559,59.740381 30.767509,54.539049 23.072132,49.677028 15.567874,44.524276 c 0,0 -7.93e-4,5.29e-4 -7.93e-4,5.29e-4 z" />
    <path
       style="fill:#0000ff;stroke-width:0.264583"
       id="path190"
       d="m 142.66478,114.56188 c -3.07659,-1.11762 -6.19393,-2.12888 -9.22979,-3.35286 C 113.83606,103.3073 95.24726,93.085543 77.117458,82.288882 73.1068,79.900456 69.158481,77.408878 65.178995,74.968874 61.89632,72.837235 58.592463,70.737867 55.330968,68.573959 47.270283,63.225923 39.51584,57.463864 31.649032,51.842421 c -2.31702,-1.766859 -4.986512,-2.900424 -7.740877,-3.784304 0,0 -7.94e-4,5.29e-4 -7.94e-4,5.29e-4 v 0 c 2.754367,0.883867 5.423849,2.017437 7.740893,3.784259 7.866887,5.621377 15.621394,11.383407 23.682126,16.731421 3.261511,2.163898 6.565384,4.263258 9.848074,6.394887 3.9795,2.439993 7.927835,4.931563 11.938503,7.319984 18.129808,10.796608 36.718573,21.018363 56.317413,28.920233 3.03583,1.22399 6.15313,2.23528 9.2297,3.35293 0,0 7.9e-4,-5.3e-4 7.9e-4,-5.3e-4 z" />
    <path
       style="fill:#0000ff;stroke-width:0.264583"
       id="path192"
       d="m 20.469485,48.129033 c 0.760066,8.409694 2.134834,16.767609 3.913228,25.020413 0.445813,2.06884 0.951376,4.124349 1.427063,6.186524 2.317109,9.406178 5.256162,18.642454 8.197215,27.8677 0.261715,0.46338 0.997571,3.85039 1.881087,4.07565 0.334475,0.0853 0.690424,-0.082 1.017534,-0.1922 0.688412,-0.23195 1.329637,-0.58945 2.015228,-0.82961 1.146069,-0.40146 2.316692,-0.72906 3.47504,-1.09359 3.857914,-1.15894 7.831151,-1.81041 11.796348,-2.46248 0,0 7.93e-4,-5.3e-4 7.93e-4,-5.3e-4 v 0 c -3.965199,0.65207 -7.938439,1.30355 -11.796355,2.46247 -1.15834,0.36452 -2.328955,0.69211 -3.475019,1.09356 -0.68558,0.24015 -1.326798,0.59764 -2.015193,0.8296 -0.327092,0.11022 -0.683006,0.27754 -1.017474,0.19228 -0.883481,-0.2252 -1.619438,-3.61226 -1.881116,-4.07558 -2.941111,-9.225215 -5.880153,-18.461486 -8.19728,-27.867653 -0.475689,-2.062173 -0.981254,-4.117682 -1.427067,-6.18652 -1.778398,-8.252814 -3.15318,-16.610747 -3.913086,-25.020468 0,0 -8.73e-4,5.3e-4 -8.73e-4,5.3e-4 z" />
  </g>
</svg>
